<mxfile host="app.diagrams.net" modified="2024-02-09T21:03:21.269Z" agent="Mozilla/5.0 (Windows NT 10.0; Win64; x64) AppleWebKit/537.36 (KHTML, like Gecko) Chrome/121.0.0.0 Safari/537.36 Edg/121.0.0.0" etag="xUxipDppkWciFv3CZcEt" version="23.1.2" type="github">
  <diagram id="wFE0QG_FPsp0jaGvCLVb" name="Page-1">
    <mxGraphModel dx="1426" dy="1885" grid="1" gridSize="10" guides="1" tooltips="1" connect="1" arrows="1" fold="1" page="1" pageScale="1" pageWidth="850" pageHeight="1100" math="0" shadow="0">
      <root>
        <mxCell id="0" />
        <mxCell id="1" parent="0" />
        <mxCell id="_5mSTuPxr-ZiKRkBDSY7-1" value="" style="swimlane;fontStyle=2;childLayout=stackLayout;horizontal=1;startSize=28;horizontalStack=1;resizeParent=1;resizeParentMax=0;resizeLast=0;collapsible=0;marginBottom=0;swimlaneFillColor=none;fontFamily=Permanent Marker;fontSize=16;points=[];verticalAlign=top;stackBorder=0;resizable=1;strokeWidth=2;sketch=1;disableMultiStroke=1;gradientColor=default;" parent="1" vertex="1">
          <mxGeometry x="160" y="-60" width="491.18" height="510" as="geometry" />
        </mxCell>
        <object label="SOURCE" status="New" id="_5mSTuPxr-ZiKRkBDSY7-2">
          <mxCell style="swimlane;strokeWidth=2;fontFamily=Permanent Marker;html=0;startSize=1;verticalAlign=bottom;spacingBottom=5;points=[];childLayout=stackLayout;stackBorder=20;stackSpacing=20;resizeLast=0;resizeParent=1;horizontalStack=0;collapsible=0;sketch=1;strokeColor=none;fillStyle=solid;fillColor=#A0522D;" parent="_5mSTuPxr-ZiKRkBDSY7-1" vertex="1">
            <mxGeometry y="28" width="161.73000000000002" height="482" as="geometry" />
          </mxCell>
        </object>
        <object label="SQL Server" placeholders="1" id="_5mSTuPxr-ZiKRkBDSY7-3">
          <mxCell style="whiteSpace=wrap;html=1;strokeWidth=2;fillColor=#0050ef;fontStyle=1;spacingTop=0;rounded=1;arcSize=9;points=[];sketch=1;fontFamily=Permanent Marker;hachureGap=8;fillWeight=1;strokeColor=#001DBC;fontColor=#ffffff;gradientColor=default;" parent="_5mSTuPxr-ZiKRkBDSY7-2" vertex="1">
            <mxGeometry x="20" y="21" width="121.73000000000002" height="80" as="geometry" />
          </mxCell>
        </object>
        <mxCell id="pazbaebo3BSYu9c_9pSt-1" value="" style="shape=image;imageAspect=0;aspect=fixed;verticalLabelPosition=bottom;verticalAlign=top;image=data:image/png,iVBORw0KGgoAAAANSUhEUgAAAOEAAADhCAMAAAAJbSJIAAABC1BMVEX///8mh88Acsa41DJ/ugAAcMVolcAdhdA+hMx1qtwAfsyLt+AAaMN7uAAAbsXm7/QAbMQAZsK10iHT4+91tQD0+Oaz0i8+kNK30yoAZMIAe8uSwhjz995imtO30Oj6/P3g5eqiyiTW3uay0QD4+/Th6/XR1dnw8fO71j/J3oOaxh5JldJsn9SUvODN3u+gv+G1zefc3+Ll787e6q7R46HK3nS51VjD2mvg7MLY557N4Y+71knF3GXj7rzT5JWxwc92nsKZxjarz1u21YbG3qfC3JqVxEGIviKlzWvM4a7a6tC62JubyFmGrtpYkdG6zuo+e7pVh76ftdAAZrCOq8+lu9MAVKkcaa3AydWpwDplAAAMaElEQVR4nO2dfV+byBbHExQJBAMkagw1gEkQbSKJT23tw9Zt195211i1eq/v/5XcARLDPEAwDAG78/ujnxomZL45M2fODGcmpRIT079bpqWYVsdWzNLeXgPIVhS70ejs7Zmm3QD/KFbeNVxQR2ZHObJLe3bJMc2YcqbjmPae2XDsI0VZWu1SyXJsS+k4cVQR8uxpW50CG9VRLMuxKNwIQFo07kNTptKxrAXMFiPFsRTKt1xUJvjCs+pBClC+lMBRWk7Gn+FYmX9E5EcrR0vyfuCLXL4pzed/s6a5OVPsEELSkp2PlWzs2tw5Pjk5PTs7e1Mn6w24dnJysrPTS3I7Z3ltxppTorcDuN52uwHGNtAKWd4lv0y3u//27PTdPFIQHdGiiJYT6zh7x+cHb3y0SKoo+azd+sf3J8dxnCCaoI0E3z+69/Xenb/d7y6AhoB6nPtnJ8eRdXAy9DpmJ+LevXfvP3hwqdhQzg+nO1GMGYUCZoT9ds49R0KPLkz58WST+Jm0Iyhf5JBz8xy0TPp0M8ruh3MiJPUwwCQ5sd4JwMuMbqp6980nUo0sqoAkA24eLAHP13Z96w+Cf6VpRgW/187bbnaNE1e9/h5npDJX83WEdevewVL5AsY/cERKQQ7utz7Vl9Q+YcZtbPigg4gPsGd58HnqYmZ0KPRF/B77eQECMx6glaEwMGLtYH/ZPXAOYlpAbBw8yM+CnronSH3SOlRsXD3u5goIrIiOGiknVFgbPcizjfqEmBHT9UQLfaGbM+DK9tncOr5wwpUVtErpxkS7cITbb9Eq7aUixNp4/v3wFK1SIxUh1gLedfMmxCLwdM7UxV5JEbJtPWlxQGw8LJU+pyIc4y+tJG6nAGV3d/cV0Kqv9ScFf696l17v7j4DuY550lLpIhVhBR9seitzrbi1+9qjQoFwhUq8egVQFwG011IR6kPCix+jEbcA2hyqWNpVYNNozu45oTZiOsJKjfTqJ9L8d2v31epCaDgosCcBs75PWkS19ZSEqkh6uXcGL7AB01GAgzBXEcrtOsmApVJfSEnIawbxws7HqR0DOmpwYUxAObVf/YC81l8VUhNyWsSI6q+1bb1ezYRuRgkgt+vbpLU2TyOpnJ6Ql7HQbaLeyZ8bmfL5jBsbX0jrpb4MqUyBkOM1fNyfavPrapaQ6+sb3/6KfhQ11MtUCDm+RRozpupd/rmRBSWg27iKwQN9EFiQDiHHaYPYaWbv+Os3qpSAbv3bZfQTNk9OXyjTI+RULrqlTijfXV6tepjpONc90/3n++XcB98j34D0CEFnjDfjE+b3b+s+53NB13221W9f/4p9BjyR0p4CUiPkuJoa1xshzuMfABQYNECNpp1c9coBtMsfxwmXXMyqJJTpE4Jhg0vKGKh3/Pfp5T/fv1xd+U4fESC8uvry/Z/TH38nJQtkHob4qBJ6jPxw8ZUts7cz0fPTaUJ3qUJ8lAk9RnWcZx5oQ9RhPuqEgFFtXZND1cxljvoSypcBYdBYxXTLP4vIEAUB58uGEDDWNH08b4SkKNMVBYL5MiT0IWV+YCwjMVIZReNlSRhAapWqm2VipOlWmxKxcS6FMHA8cqsyzsSWilFt6jHGWxLhlJJrD116w4hiHLaFObZbJmHQYlVZ4ysi4EzTak3FHY77gjTfdEsnDDB9TlVqj4dG41mkgMwYjttNjy2Z6fIhnHJ6oICU05sDsTr8abjeZqDw5hnTdBzbbriGMTqsiv1mWZKkhI2yCIQQak1VPVpNlmVVBX95JvIkBfL/vxBYIQhJyClxik4IxAgZISNkhIyQETJCRsgIGSEjZISMkBEyQkbICBkhI2SEjJARMkJGyAgZISNkhIyQETJCRsgI54rnExZ8gYR8TdU0tVbz8r1kWa3FvoGvTdOEFs+BWi4hr2qV8aihmJ4cxTWqbU5TI97D12T1+tBtOH5pxR2J5egEveZMORLymj7EMy7tITk5XJUHWLKtfViWiLUO71ytxts6Q0JVj8rZJ3RKtRaxU8MgMRaDsEXYqz8R1hn5mMKzPVrFIozaH0wkVCtR21B9KX1sl0gBCGP2lWKE2mDex4wRMxaAUBvFvQsm1A7nf84hjJg/oRpvFYgwCeB0x2txCLX43QdhQpl4ZAGuAbTjLm9C9KAFtzpot9vi4XTbRYiQryT9qELZUIb2dSkVELX5Kd2yJvmj3oyQl9GQQBmJ/XK5Lxro8NjQi0PIQ8eB2K3wPlO1JTqhEV9Gdp3abT1IXQeR6RhhFEM7X3MmrLXjitS04QxYgm9XbYUciiDBI44zu5Y3oRoOUBQNv/70P2TUbGvw7AlBnKHkThhuejZOGGXCsYzODyUo1rFnO9CLRKjI0YRwLzRaHEooNKFPaxeSsKRHB+ca5Et8D4vUVoK/g6dzEvImhCYKo1ZkI70Olzv0jY3F2OEiZlEIkVF8rEVYUYaC12Dqj9ZWgspMJxl5EyKtrzRSVVIpTguP9m7QXzEbQhFutSiEKjKzMAdajWBqNVxGVImEZSn8bRlFIcSDTbvdwhjhbjhxSDhhOAKcjhe5EyI9LIKxFq6mORlUsNoK4VuZhSHka4RlJbsNuxw4MIgkhKaPRWmlwD7ESVGjIodnhmHruJGE0EysOISc2iaWH4YQ5XDUaUQSQs6UhJ3XaqJ8TXyDUlGJhCM1grAMfVXNAhFyqk4+YaAtpyAskg29+Tv5UCVRJhFGtdIiEwJEibhq2lZxwpfnaSaMWoXEGIzuUOQTPVpUQ6WcwoyHcxgDg8GTrEQjfnFiGpixiR2p5L8NXnOsJInajEISks7j8/0KHL2OoyLvcKHDwvXDqWoq/CQqWJ7Swi+5GpEQdjRt0quFIOT4FhyL+yumkDOduB9sBhz+aszp1QISclwLWjZr+h0RXu0grmJAS1GFWachN1Qovmx7Myleh+4lkVaioNYtFsaGpOQZnsMIkQVhm7CaCH0tZmHWS/nra3yRFF6zuPbfBy//+6tyUG2FJuSDh4VZ8wYVH7fQC/DYIAWXkWOkhy3oBB6hCT+GLNaTmUYFWUNsQT1Km5UMy63NHqEJOvIU8rBYhJ7jC2U/IekkjenDDCyhYVieZH3pIpKfoYQfS0GEuoRKWAoh4Bjrfi6bKqPBaXU6DYb9jy/bGFaHI/zszH45gtBuYAqZO+vnh05jNBqODHQuPHO2c3IaZoKyMQQxvrCxPEKyhiFXqyU7e9iNzsUgKG9CBcpOjE+9mciNyachKG/CCrw0nMCKRlxOFKl8voTX6HOauVlfVTR3r9CEZgV/EBWfuWc35yze4MqakI8hHBEzhHkNTS15kiLqKF/+hMAmEamXBrSsD71FJp4D7g6IidC5E3oH0IvoybqOK3JRfJyfBX2N50wreAsNCJVYjTIn9NPSZe8k1p+G651CWm1XQHAzZzLJyxonHhpQfGBi2bNBtbFAbalR24zSP5zU05xdCLO3gKBUKkN9sp1yU0Ih98zAWTQiMV3/ZRMKfYqIhSREVi/QHOjfgbAsVaGPGaZALCghku5VGhGG/RdOiKwjltyFEQtLiCaXNhZFLC5hWYIjnMYzTpp/IYRlAY77lN/OhmDkhyccJjlIfcmEQh9aR7Pd386G5XJ0QP27EFIQI2SEjJARMkJGyAgZISNkhIyQETJCRsgIGeG/gvDmtye8JezvLRrhQyrCO/Iu7SIRSp1UhFbkcQKFIdTnU8SKdkekTijcpyTsUDYidUI99c+Cr9HtibQJpbu0gCXnF9V2SplQmJfMm0R0nQ1lwiaVn67vxJwilDOhbtEA9BDpNVSahOiOlDSIHLXQhiKhcEOliQYyb2NOg8qJUI85EnUR3eGns+RKKOiPdAGBS72NSY9dOqF+QbGFPukzR2Hwp0Io3aSLtqN1F3Eg1HIJpXLMAb9pZd7PTXXOmFDIlM/Xwy85jc9JRyjobeoOhqDHdmtxQ6YgFCTpwloCnyfz7ibybPmsCCX9NskWMXo6uv+1EORiaU+SdPtALUJLLuvuRpYT7kJIQQjwBnngBXIe135pSfdaLEAoSHrzvpPF4P4cWQ9rlZasJnSwiQkFn+4xN+Mhcty72/9qSXbOJCH04G7W7rKKWxaX8/iwdqMBzjh7xhEGv12i9y8eGkUxHUlHnYf7wS9e83+SReXRH6AhEE5+lAX4S/G+2GyQjpTHz8ML8fZ/OoD1cCeSJjT+v7qkl8s3g/HF6HNHeTFouBzHUR49/QS6uzcCgb8dxXnBWExMNPV//lW98fYFHSAAAAAASUVORK5CYII=;imageBackground=none;" vertex="1" parent="_5mSTuPxr-ZiKRkBDSY7-2">
          <mxGeometry x="20" y="121" width="121.73000000000002" height="109" as="geometry" />
        </mxCell>
        <mxCell id="pazbaebo3BSYu9c_9pSt-35" value="" style="shape=image;verticalLabelPosition=bottom;labelBackgroundColor=default;verticalAlign=top;aspect=fixed;imageAspect=0;image=data:image/jpeg,/9j/4AAQSkZJRgABAQAAAQABAAD/2wCEAAkGBw8TDQ0SEg0NEhIVEA8VFRUPDxcNDw8PFRcYFhUYGBUYHjQgGBolIRUVITEhJy0rLi4uFx8zODMvNygtLisBCgoKDg0OGhAQGzcdHR4tLSstKy0rKystLSsrKy0tLy0tLTYuLSs3LS0tKy0rKy0rKy0tNTcuLS0tLTcrMS8uLf/AABEIAOEA4QMBIgACEQEDEQH/xAAbAAEAAgMBAQAAAAAAAAAAAAAABgcDBAUBAv/EAEAQAAIBAQIGDwcDBAMBAAAAAAABAgMEEQUhU5Kx0QYTFRYxMjM0QVFUcXJzkRIUUmGTobIjgsEiJIGiNUJi4f/EABoBAQEBAQEBAQAAAAAAAAAAAAABAgUEAwb/xAArEQEAAgECBQQBBAMBAAAAAAAAAQIRA1ESExQhkQQVMVIFMkFxsTNCgSL/2gAMAwEAAhEDEQA/ALwAAAAAAAAAAAEf2VbI1ZoxjBKVaSvSlxYR+KXX8l8mQWrslt0ne7VUXyjdBeiR69H0Wpq14viHn1PU0pOPlbQKi3w23tdbOPN8Nt7XWzj7e233h8utrst4FRb4bb2utnDfDbe11s4e233hetrst0FRb4bb2utnDfDbe11s4e233hOtrst0FRb4bb2utnDfDbe11s4e233g62uy3QVFvhtva62ceb4bb2utnD22+8L1tdlvAqLfDbe11s483w23tdbOHtt94Otrst4FPvZFbe118483xW3tdfOHt194OsrsuEFPb4rb2uvnHsNkluTvVrrf5akvRont194OsrsuAEQ2I7LXWmqNdRVVp+xOK9lVLle010S6ep6ZeePV0raduGz00vF4zBj+QGMHzbAAAAAAAAAABVGzGo5YRtN74JQS+SUI/wD31OKdfZb/AMja/Gvxicg/S6P+Ov8AEf04mp+uf5kAB9GAA9AHgAHp4AAAAAMHkmB8AAigAA2MHVHGvQknjVWm13qSLtKPsnK0vHDSi8Dlfkvmv/Xv9F8SX/IC8HMe4AAAAAAAAAAFS7Lf+RtfjX4xOQd3ZVZajwhamoSac1jS/wDMTn0sE2mSvjZ60l1xg5K//B+j0tSvLr3/AGj+nG1KW457fvLSB0dw7Z2S0fTY3DtnZLR9Nm+ZTePLHBbZzzw6O4ds7JaPpsbh2zslo+mxzKbx5OC2znA2XYK3TSlqM0MDWqSTVmrNdDUG0/8AI5lN48nBbZoA6O4ds7JaPpsbh2zslo+mxzKbx5OC2znA6O4ds7JaPps8eBLXj/ta+Lh/TeJDmU3jycFtmgfEzb9xq5OX2Prca1vGrLXd/BdBu9CdSm8eViltmgDobiWvstf6bG4lr7LX+mycym8eV4LbOeDobiWvstf6bPmpge1RTcrNWSXC3BpIcym8eU4LbNaycrS8cNKLwKWstjq7ZT/Tlx4dHzRdJzPyNoma4nd7vRxMROS8C8HNe0AAAAAAAAAAEHw4/wC6reJaEdnYw/0JeY9ETvOK6lf3BJLoNcXZMMIM4JlWAIzgZFe2h/qT8UtLJZgPHZaXdL8mdT2F1L0PUvQs2SIYQZwTKsBitXJ1PBPQzcPirSTjJdaaxcOPEMivJPETCyclS8ENCI3hnBs6DSf9UXxZdfyfUySWTkqXghoRuWYZgAZaDSwzzar3LSjdNLDPNqvctKKSilDjw8UdJZBW9Hjw8UdJZAszBcBcDDQR/ZTskjZkoRipVpK9J8WEeD2pdfTcvkyQFS7LKrlhC1N9E/ZXdFJLQev0WjXV1P8A18Q8/qdSaU7fu+6uyq3ybfvMl8owhFL7Hxvnt3a6npHUcgHa5On9Y8Q5nMvvPl1989u7XU9I6hvnt3a6npHUcgDk6f1jxBzL7z5dffPbu1VPSOob5rd2up6R1HIPRydP6x4g5l958utvnt3a6npHUN81u7XU9I6jkAcnT+seIOZfefLr75rd2up6R1DfNbu11PSOo5AHJ0/rHiDmX3ny6++a3drqekdQ3zW7tdT0jqOQBydP6x4g5l958uvvnt3a6npHUfD2UW/tdT0jqOWzGJ0dP6x4gjUvvPl2N9Fv7XU9I6hvot/a6npHUccE5On9Y8QvMvvPl2YbKremn71N98YSX3iTPYlsr94ltVWMY1rm4uOKNVLhxdD6biszcwNVcbXZpJ41Wpejkk16No+Ot6bTvScRiX00te9bR3yuDCNkVWjOD6VifVLoZp2VXUqd/D7EP8YkdUh1pw5VjUqRUad0ZzSvT4E2us4cOqkII1vgrfDS9HrG+Ct8NL0esuDKSmlhnm1XuWlHH3wVvhpej1mK1YZqThKDjTSfDcnfw39ZcGWjR48PFHSWQVvR48PFHSWQSyQXAXfMGGgqLZNz+1+bIt0qHZPz+1+bI6P439c/w8Xrf0x/LmAA7DnAB6APAAAAAAAAAegfMz4PqZ8kUAAA2cGc4s/nUvyRrGzgznFn86l+SM2+JWPldhE7TgCUqlSW2xV85u72XivbfWSw0J8L72fmodzCO73ZZWOa9Y3uyy0c16yQg1lMI9vdllY5r1mK2YFlTpyntkX7KWJRa6bv5JMaWGubVe5aUMmEUo8eHijpLIK3oceHijpLIFkgufWBj+QMNBU+ySzVHbrU1Tm1tssai2i2CDYY5zX8bPT6bXnStMxGXx19KNSIiUSp4NtElfGz15LrjTk19kfW5Fq7LaPpS1FkbGubvzJaEdU9XuNvq8/RV3VFuRauy2j6UtQ3ItXZbR9KWot0D3G31OiruqLci1dltH0pajF7lVyVTNZcSIFPjPvZY/IWn/Un0dd0ejgq0tJqzV2uhqlJp/Y93ItXZbR9KWotDA3NqPh/lm6T3G31OiruqLcm1dltH0pahuTauy2j6UtRboHuNvqdFXdUTwVaUn/bWhL50pXL7GH3Orkqmay3LdyNXy56GQaTuTLH5C0/sk+jruju5Vp7NaPpS1Dcq09mtH0pai1aHEh4Y6DIT3C31a6Ou6ptybT2a0fSlqG5Np7NaPpS1Fsge4W+p0Vd1SzwZaEr3Z66XW6ckl9j7wbZqnvFne1zu26l/wBX8SLIw5zap+38kRix8rS8yH5IdfaY+DpIiflYxoT4X3s3zQnwvvZzYe14ACgaWGebVe5aUbppYZ5tV7lpRSUUo8eHijpLIK3oceHijpLIFmYMYF/yBhoILhjnNfxsnRBsL85r+Nmqs2dzY1zd+ZLQjrHK2Nc3fmS0I6on5WAAAEQKfGfeyeogU+M+9lqkphgbm1Hw/wAs3TSwNzaj4f5ZuklQAAYLdyNXy56GQWo8ROrdyNXy56GQOZqqSm1DiQ8MdBkPihxIeGOg+zLQAANDDnNqn7fyRGLHytLzIfkiT4c5tU/b+SIxY+VpeZDSjUfDMrGK+t1ae3Vkpz5Sp/2eL+plgnErYKoOcntavcpN/wBT4W8fSZrKzCJbdP455zG3T+OecyVbkWfJLOlrG5FnySzpazWUwiu3T+Oeczx1ZXY5SffJsle5FnySzpazVwng2jChUkqaUklc727sa+YyYR+hx4eKOksgrehx4eKOksgliC8C8GGgguF+c1/GydEFwvzmv42aqzZlsGFp0oeyoQavbx334+5/I2d8VXJ0/vrNfB+CJ1Ye2pxS9pq539F2s2d7lTK0/Rmuyd3m+Krk6f31jfFVydP76z3e5UytP0Y3uVMrT9GOx3eb4quTp/fWcdu9s7O9yplafoziyWNosYJdSy4bqQpxgoQairr3ffpMu+Krk6f31mOy4EnOnCSqQXtK+5p3oy73KmVp+jJ2O7zfFVydP76xviq5On99Z7vcqZWn6Mb3KmVp+jHY7sdbD9RwknCnji1ivvuau6zhs7dpwDOMJSdSGJN4k+hXnDLGB14YfqJJbXTxJLp6P8n1vhqZOn99Z5DY/UaT2yGNJ8D6T63vVMpD0ZOy93m+Gpk6f31jfDUydP76z3e9UykPRje9UykPRjsd2C2YZnUpyg4QSd2NX34nf1/I0rHytLzIfkjdtmBp06cpucGldwJ343d/JpWPlaXmQ0oqLGNCfC+9m+aE+F97PnDbwAFA0sM82q9y0o3TSwzzar3LSikopQ48PFHSWQVvQ48PFHSWQLMwXgAw0EGwvzmv42Tkg2F+c1/GzVWbO5sa5u/MloR1jk7GubvzJaEdYT8rAAACIFPhfeyeogU+F97LVJTDA3NqPh/lm6aWBubUfD/LN0kqAADUwm/0qnlz0MgpN8IO+nW8E9DIQaqkpzQ4kPDHQfZjocSHhjoMhloAAGhhzm1T9v5IjFj5Wl5kPyRJ8Oc2qft/JEYsfK0vMhpRqPhmVjHDrYWoKc06mNSkn/TLhT7juEAt1mqbdWe1VOUqcEG1xn8jNVmUg3Ys+U/1lqG7Fnyn+stRGPdauSqZj1D3WrkquY9RrEJlJ92LPlP9ZajVwnhOjOhUjGd7aVy9lq/GvkcL3WrkquY9R7Gx1W7lRqvupy1DEGXzZot1KaXTOK73eixyN4AwHKM1Vqq5rix4Xf1vUSQzaVguAuBlQguGOc1/GydEFwxzmv42aqzZ3djXN35ktCOsQWFeaV0Zziv/ADJxX2Pr3urlaufLWawmU4BB/equVq58tY96q5Wrny1k4VynCIFPhfezL71VytXPlrMJYjCTKY4G5tR8P8s3SCxtFRJJVKiXQlNpI+vequVq58tY4VynB4+shHvVXK1c96z4qWurdytXPlrJwmUstvI1fBPQyEmV2mo8W2VLvG8ZjNRBMpxQ4kPDHQfZCVaanAqtTPese9VMrUz3rJgymwIT71UytTPese9VMrUz3rGDKT4c5tU/b+SIxY+VpeZDSjydebVzqTa6nJteh7Y+VpeZD8kUmVjAA+TQAAAAAAABd82Bd8wAINhjnNfxsnJBcMc5r+Nmqs2dPAmDqNSj7UoXv25K/wBprFcupm/uJZsm8+WsxbGubvzJaEdYsyQ524lmybz5axuJZsm8+Ws6IJlcOcsCWbJvPlrInJY33snqIFPjPvZqGZSPBuCqE6FOcoNtq9/1SXS+pmzuJZ8m8+WsyYG5tR8P8s3TOWnO3Es+TefLWYquBrPfybz5azrGvJ3tjJhybVgigqdRqDTUJNP25cKXeRgmtt5Gr5c9DIUzUJKVUsD2dxj+m73FPjy6u8+txrPk3ny1m7Q4kPDHQfZMrhz9xbPk3ny1jcWz5N58tZ0AMrhxMK4MowoTnGF0l7N39Td17S6WcSx8rS8yH5Ik+HObVP2/kiMWPlaXmQ0osMysYAHzaAAAAAAAAMYGMACDYY5zX8bJyQbDKutNfxt+uM1VmzubGubvzJaEdY4OArfRp0XGdRKXtyd1z4Ll1I6G61ny0fSWoskN4GjutZ8tH0lqG61ny0fSWomFbyIFPjPvZL1hez5aPpLURCbvb6r2aqzKYYG5tR8P8s3Tj4MwlRjQpRlUSaWNXPrfyNrdez5aPpLUZabk3iZgNethez3JKrH0lqMW61nyq9HqAzW3kavlz0MhRKrVhOg6VRKqm3CSWJ4213EVNQkpxQ4kPDHQZDn0cKUFGN9VX+yuh9Xcfe61nyq9HqI1lug0t1rPlV6PUN1rPlV6PUDL5w5zap+38kRix8rS8yH5I7uFsIUZ0JxjUTb9m5XPHjXyOHYVfWopZSn+SLHwzKxQAfNoAAAAAAAAv+QF/eABw8P4IdR7ZTV87rpR4PbS4GvmdwFicCvp2epF3OnNP5xaPNql8Es1lhA1xM8Kvdql8Es1japfBLNZYQHEcKvdql8Es1japfBLNZYQHEcKvdql8Es1japfBLNZYQHEcKuZ0p38SWaz52mXwTzWWQBxHCrfaZfBPNY2mfwTzWWQBxGFb7TP4J5rG0z+CeayyAOIwrfaZ/BPNY2mfwTzWWQBxGFcRs827lTm+6LbZI9j2BJRmqtVXNcWL4b+t9XcSQEmy4AAZUAAAAAAAA9oC8AOkdIAB9AkAAlwB8AABBAAEF0gAFwsdIADpD6AADEuAAA+AdAABCIABdIXSAA6R0gAH0CQACQYAHyAAP/Z;" vertex="1" parent="_5mSTuPxr-ZiKRkBDSY7-2">
          <mxGeometry x="20" y="250" width="121.73000000000002" height="130" as="geometry" />
        </mxCell>
        <object label="STAGING" status="In progress" id="_5mSTuPxr-ZiKRkBDSY7-6">
          <mxCell style="swimlane;strokeWidth=2;fontFamily=Permanent Marker;html=0;startSize=1;verticalAlign=bottom;spacingBottom=5;points=[];childLayout=stackLayout;stackBorder=20;stackSpacing=20;resizeLast=0;resizeParent=1;horizontalStack=0;collapsible=0;sketch=1;strokeColor=none;fillStyle=solid;fillColor=#006600;" parent="_5mSTuPxr-ZiKRkBDSY7-1" vertex="1">
            <mxGeometry x="161.73000000000002" y="28" width="180.45" height="482" as="geometry" />
          </mxCell>
        </object>
        <object label="AWS S3 bucket" placeholders="1" id="_5mSTuPxr-ZiKRkBDSY7-7">
          <mxCell style="whiteSpace=wrap;html=1;strokeWidth=2;fillColor=#0050ef;fontStyle=1;spacingTop=0;rounded=1;arcSize=9;points=[];sketch=1;fontFamily=Permanent Marker;hachureGap=8;fillWeight=1;fontColor=#ffffff;strokeColor=#001DBC;gradientColor=default;" parent="_5mSTuPxr-ZiKRkBDSY7-6" vertex="1">
            <mxGeometry x="20" y="21" width="140.45" height="80" as="geometry" />
          </mxCell>
        </object>
        <mxCell id="pazbaebo3BSYu9c_9pSt-13" value="" style="shape=image;imageAspect=0;aspect=fixed;verticalLabelPosition=bottom;verticalAlign=top;image=data:image/png,iVBORw0KGgoAAAANSUhEUgAAAMEAAACUCAMAAAAd373qAAAAzFBMVEX////gUkOMMSOMMyXSUEHkU0TETD2XPTDhVEbysKn++vn9/PvVtrGXQTTupqBeHxjgRDKfOCroXE2mamP31tT07uyJJhWgPjHbU0VZHRfvoJmDLR/fSjrv4+HUTT6LKxzIpJ/539ymXFLXXlLEm5WfUkeKHwTumJHqZ1rpUT/k0M17Kh5nIhquPzH8vLXkXlGye3fmdmvvxsK+kIqlYlrsc2fohn7bwb3yvLelSj65ZVycMCCENSm2PzDbi4K9dWy9UEOYJhTPjYXCPy6ck7whAAAFxElEQVR4nO2dC1fyOBCGaUu5g+XSgvQGKDdBschNd9Fdv///n3aSQi00RURKEzbv8XiOWvV9MknotMw0keDi4opcppmL28KvpBY6d8123C5OVt687/ZsS6n0a2zGwWx1bFuUkrJhDJpt9hjM1gz8i4hAEOThoFnLx23pJ8rD+GuaKG4JBMFQgCFuW8cLzR/Xv0cADENm5pLZ6uL54wJ4BO5con9fcvcf8Us+AmCgfl/K++cPgQDmEt37krt/iocIIA4yrGlKGdTn3r7/nXXgMRgDSpeDWtX2AQgxQAgVSjdWThC/SASkdcAWAfsx4ASX1XUS8JV8WXGCS9k0c2EJ7znWQU6N9voSnP+/yk5z2lZJFL+NgWo+tKpSKsIcKPcA+ZckDBWlMm+uampu7z+dTpDPqQ/L+2qx19PEVGR5XA7yR8hf0hlkwTDkgdNf1Ux/ME4kgKEvvDx30z0NX51JyYYyiYDByx/TGdcRQBjCxOlnp17SeAoBcl/tpm3Ny41SMs5Fz82Qf5ht8sctAXYiy4ZcmS9K0/YpBOqy9TwrirY/M5UwAfrTldVZL5HlC+nNv/ETeMGAKdWcqj8hgDW1O/R7BIKglM4ahHyhGEbgajhUBOc1CEAmyLwVe1rAfdQE4kECHIzysQTCXza8UhCOjpdAsI4nKBPtx00AvkiWGkSCEAAaCf5+tNCexSiBPhrf3NyMR/W1Jfsp2CDA7m9vgQA+396MyikcC5kJAskde9e+K4C4HQMFYMBx1BJYZV3S9dFoPL71u/dRjMd6/TFlZSglEDKPgbEPoVhTSiA0kqmyOEIRIFLg747Ho5Ee5j92AsH9UXJdDmBg8+A97JWMFoINBygDGNLXdoRG/hvvNBH4MFLr+ujgrKGYYEtRqR9vnz4CBJFhnqDBCTjB/5wAzkSBQP/BZkoNgYyVsSwrmXp8LKOzIB3pu1dkCghc6zJyvl6Xy8h7UmigL1MIRHdFLwEa9j9rd8zFrU8v04c5BSjwY/EAQ9z5gRgYYgliQIgRnWfXxMxrj+DAkUwRCMwTsB8DTsAJOAEn4AScgBNwAk7ACTgBJ+AEnIATcAJOwK94MREDqxy8uE6+8tugkwDderWs9ebqu+4RbN5hiz/QHRF0HyEMIG6C7RBntjdA0C9ADCwrCd846hZI3AQ7IILl3rvx3YYKd04ZgR+kUdcldt9XITB/N5YTcAJOsKkTqZPfpk8/gYGrXObO4v2j8ypqmkaorqCWAA29Aeb7zVLWVenzo1O0tSOiETsBPqeYOAvPu1+l97duWgz0g6CJoDGYL9DAP61WBIDs09NTtgTheOsWaSX45+0d7JPM+yiypf7ijs6za5QfFLudj0/SDNqo2V84gwmt7xzHmRfqGlV0KfaDAWPv3FVkmeIc7cuXLRa7iGIDAauiv5hP2KmgcCFg5wQKFApwXzEM5qpYXAot3XEmqA71myNpJUAQtmUcdyQFBOSKujShok4QyuSKwHgJ5CGpqpFY5S5Y/2oiuawx0spS6QCBPFQM571LOGEgVjVOPqsiubQ0QoKw6l5c3Dtx+lMz94Pq3nZCXaLy3gBFdAQP1bS2TyCjTQYVWK/auBj6xzXiZuH+ubNbYr0hgBeO+fTMTQjVAjDYHgF2Dyeh2WlN9Q45oco9Zy5bL7OiV2vtEhiyk22fv4uiWaiKGu40IBuKMcAl+jtdH07sNJDftBoQUasBCXUaMJxsRF0rgKFnDxUlA+5r5n6zh9/0q0DtHgovuN3Dn+G8FGHHO3U5mzenbfII/brriWou72cw/pHZx8qFNj05T9+WQGQvKUY6zxwQJ4hf10nA+3hdVpwgfl0nAV/JlxUQBFNfIoFMKwHqVLzPwFSnYlK36OA6QB2vae0WfQUduxObrulaGAH9XdOxUOd6jUTARud6LN9c+loHDD09IHEFT3BAYvwpGlisP8kkcQVPk0Fi/Ik+WKw/VYmLiwn9By/z+sDwFJTSAAAAAElFTkSuQmCC;" vertex="1" parent="_5mSTuPxr-ZiKRkBDSY7-6">
          <mxGeometry x="20" y="121" width="140.45" height="109" as="geometry" />
        </mxCell>
        <object label="DESTINATION" status="Completed" id="_5mSTuPxr-ZiKRkBDSY7-9">
          <mxCell style="swimlane;strokeWidth=2;fontFamily=Permanent Marker;html=0;startSize=1;verticalAlign=bottom;spacingBottom=5;points=[];childLayout=stackLayout;stackBorder=20;stackSpacing=20;resizeLast=0;resizeParent=1;horizontalStack=0;collapsible=0;sketch=1;strokeColor=none;fillStyle=solid;fillColor=#1BA1E2;" parent="_5mSTuPxr-ZiKRkBDSY7-1" vertex="1">
            <mxGeometry x="342.18" y="28" width="149" height="482" as="geometry" />
          </mxCell>
        </object>
        <object label="Snowflake" placeholders="1" id="_5mSTuPxr-ZiKRkBDSY7-10">
          <mxCell style="whiteSpace=wrap;html=1;strokeWidth=2;fillColor=#0050ef;fontStyle=1;spacingTop=0;rounded=1;arcSize=9;points=[];sketch=1;fontFamily=Permanent Marker;hachureGap=8;fillWeight=1;fontColor=#ffffff;strokeColor=#001DBC;gradientColor=default;" parent="_5mSTuPxr-ZiKRkBDSY7-9" vertex="1">
            <mxGeometry x="20" y="21" width="109" height="80" as="geometry" />
          </mxCell>
        </object>
        <mxCell id="pazbaebo3BSYu9c_9pSt-12" value="" style="shape=image;imageAspect=0;aspect=fixed;verticalLabelPosition=bottom;verticalAlign=top;image=data:image/png,iVBORw0KGgoAAAANSUhEUgAAAOEAAADhCAMAAAAJbSJIAAAAYFBMVEX///8KvvUAuvQAvPUAufT5/v+n4/vx+/73/f+y5vvp+P7N7/zI7fwVwPXT8f3Z8/1ezvea3vrB6/zk9/6A1/lDyPZTy/eu5fu76fug4Ppu0vgmw/aL2vne9f101PhMyvcLZ2J6AAALzUlEQVR4nO1d62LyKhA0gLdarfFWq1Hf/y1PYlsNZBaWBGL6HeZnSwwTAuzO7pLRKCEhISEhISEhISEhISEhISEhIWHQuHzlxe46GTOaLo4lVtF7FBYfByFkCZHlrqafZyHLxmL/3kfHQqFQ2S/EcmFreTmL35ZqPe2rf51xe/T63vNPuuWx3lLKvzKMe5lpUEeq5UIZLf/GbCxEZkC94ZYzs2EmiZaDwluDYCZPuOlVNlqu++1sKxSNbpfLDVxDpqrZkhruIaHZ65LhHLWcNEc7E19999cbWzAwmbyipgfUcviv6REMTJbtUdMlu+Wg8AUZLkFLNA1xy2Ehhwwz0PIDPwuOJftS8BkucMvBM0QL5L/F8JPNcPVHGc4TwwfwSjN8hvy3NDEcKvhr6SUxfB0ui81qRv2Tz3Drx3C8en//CEPAjo+1VEIKdc6xJxeJ4fygRAm13gTkgjA7iV8HV4gdGsgoDBdPRU7st4E56Z1a1h14KYAYGoHh9qB5ISLiME7N3ohlQ0YLznB2FaZ2Z1VgO8GUCSuOe2P2h2aYS6D7kOtcR2CDTJ00mYnPEIhyDYabJWpEaXedcYY9MqZjyDG8HHCTTMXR/4kdOqum43Pyh2M420GZ437DSRSGhMX5fcvD7+4YjOEkAxPwB5EUuR19xxKqCMqwtgMinKMwPFkZlq/qPBjD6drKL5YiZx/DiuN5Ecbyzs0dsIE4Y4iVUJ3jesv3DwmGo6P9Bb0jjm5MaGMGR2JLYTNcMvhlcheFIYy5cMFmyIKIZLc1Q5+vYhhL+m+GbF/EkA6bd8WGNDJ6ZShimaUlvlpTBD9GaG1uglEDcHPl2qmiM1QRR7DC9NRuGEMxrBv5sbDibFiRGEpRROdXYYLc7j4YqnVfmRqzq3fnwK8QsScSd7O3N3zsPbvXmaHILOlxUfCZeXWwK0MRyRK1YUyLDMEZqv2ld34VDKU2GkNxjr9DUMBiX1iG8sWJYG53vCNDcY0l/3IxPbE6Cq7keNTiRRNQB2vnANe5GfZhovFwdE5H5LK6bBopnXn+PQLGT2pADs+bfSVW115S9y+T3WlXMFLo7Qonzi+1PRTOBBwv8utpN+mS/b7Zq++6kGXuzh+w+RwCWlx7un3m1inertm9akWUvfOndse4tqELweA4J6ejhC8ckcaIY8sGZruaLy6WrVbc6Vl7i0TmjveMC7w7EvE+nELLqp0xwzat5MWl2VmO8YQlAEG4dcgJE3v3vHpvTgjqFhbs0N0P7jwIsDsqavRnjUxvkcGsfg1bGDf1lqdwCJqlIpjGqqIdnw+zKmjnnO1U3FT5GgeoLuT+kJvZF0181X1Hq+G80loe3AvGhHRLD3xyFcbEz1QP6+buxyyvVvJqzJWj16WXeW9Ytly7VwswAR+QfglxRB7sD0eYDGV2Jj/dbteJewGYzXeH/bqYuxfQ7dpmBQm/pDdcF/J4XL1rJqNqtO2OGq48ImFnWO0cfVcKfkpXl/zyM1wMq/BIG8N4+5nnbQpFHYkLLRjO3Z47x7YysNrfUyi9hes36wT8Zei3XUx5EW2/4fhUjwu9xr9gaey+Vk2zvBPBS2afPAdCLvkU3e71N3yNGtYgeoVKJtqbxqV44YrrwjsuTOTFNH+ZY+Q0CJYUORLamB8gaRE2daUlPTkyvAEQPWaMokeQq4VvUbrg7OcnnB6dOYIciowd4oGWhfzsUcyk2lm7i+P/VoqsHeL39ue22e0TftTeKv1RCQ4WioRaAG/dRfafeoRCaZmDzuCgKHJ3iApdVUcyERlAYonalqICKU497tnIpG8BrwkP3Hl7Dg6guOG/oNytyoU5P9zbTFcyCEph/FaD4py9wgTMzKBUQkTRmPXGNqGK7cYQ8QyK72yCYTMznGnJz/tqtzX3wfu2tbZQZFqLMTxU7nTU1F8z1e9n2zJW6HpKsyOZ/MFPxlAZmDZU7aSWmX6BfOzLOsVangVRR9O4h1t1bIXplTNHanqJHpioS0UGxSm+goBiCNNtwQn31iJpWnBJae7yDT+UW+ZE7MyMIzxyRcPt0VjgP1fQ0mflY9V3E2TI/l3hpPhYOMb1l9pIr9ck5+ewO1+Rc/RC6BUd1vzF0xfVFho9lL/RilE9xpDjjHYAJ3+2tl1oxyRpBogedXoqEOhgJQOqlYzJxBfHtKnplnpsoGbuzPS6k2fIgVGX00bGZMIWFqkTqS3lOpFHHHFshJefPebth6EMbh3sNL16lGur/0t9j+LMIFgvJkSBWcQxgNNkgG1764qJUVNxn4srfTWW2jZiCesZHMPmux3Z/pOZ6WokPon1ODfcqZtxAdeLCZmzyFZlSwY382IjA1Eaz0o2dE7zPEzLzTyjChR41ujPPUGoeWUblCbBchT5Ik0QC9WVsVbvLl7GLXmkiKCX0p3hwzk8QKc5NaHWxAMlKWKCI69SgG7xaJ/yGHGj12+CIklw5KUndtg5Co8JaJ/0kKKN4MhLE26rSPFFfbeNAZYbB0EfbQiucG6wpzvLTmyMopPgyGeWiBaHLKBoEebHW80uRpcaGycEuzIHZ7DaMGVOAsEWLbf6Zcyr+FKtr2vsPEDhu6M+ouVb7bAnj5eKGWbzPe5kxsrF8NVMfqa2r4PHk2o9w9zWvLbsp5+Ft2ay2isp1MlbjedItdLvJ92+Nn8Cang/TdqIEGO33yj8TFRXJobstZ6zwvbmmI5BGb6mnMxRKOfJ0PqWstSuy7woigmnSmCRr9ennPNOWJUwzwxaS9UVq+A4X95rUYRaFo6nMVlW2cRlU1m4LQebr+qbMkQcM8N7QeuWiH1Lme7rLRlbGulXeR//RSSYcqo9zO1L0Zb/VC8MEWeGSkj5Vd5bF1LvOcII8AjIeovmm8KqqETZmP52KdBmWYkB0Iykks5g1QpDJWwacm18i9G7cfvnoXM0iDeIOEAOFyDynDF9OrbzD0uvtTYcnIJVWl3Bg0hXrTDs3VoKjLTMdDtmV3knKYXYu19zW1wKL3TUes30Wb53JCHEqYOkWFV7HNa7OcMEtaqOsIbUmljCKgX4+CyKr/d+qtld0hjaju213PFiaG1wubksf8Rw4/CI4sTQ2sByzqidodshCh9DawPbOaMPoJMc3QzbVuYEBTMZrC3Dlx87wE7Gbs3wxUdH8IX3DgyrGNqLPlXGDwx3ZMiqDw4Pv7OwOjL0Fy47w/fova4MmZU54cA9WcjO0PM3RD+HnVTwqYawMfT9FSn7kfjcJhoAOoHHm2E/Mu2MdywUh6HpYrMQ/ejERYtDIYMyjK1Gc8OmERlWK048gsfWh+yGZBjxDEV2tUdkhvE+w8Ks9ojPMNKx+l2GMDRDEecD3u6TJDLyXH0PhpzVGp+O1hmUvFnnt//A8XE+w+XUcYbJHXFe07XrxvdT1nBs1WMMxyy/Ooo3tbbf8yesgb9vgRhavrS6crlmKgpD+1EZv8msQRg661ZFFIa22P4zMMyfh46v5VolkjjzkM71rZ9EHYwhcS7bHbG+T07UdOmpQ3hPacPQUsPieSYUGzhBwziILyRDMvvCM/+JD7CbNwLfYRliQUhFk6Ua36CSshEYxOpLa4ZI1Iv5jZKF3n10NB1hqaAf4+ZUGMlQLUPaTLzV819gOUcEhuV0fBqr8eOK87MSQgqp9ti+j8JwVBqr30fqkkUdIfE2z/N8Q2mXuN9oh/ZhWDXPd7v8+OoD2kc+DInRHsI3na349xnifieGf4kh3vH5cYtYH40LB+xb/EsMsQfswXDwbyn2kz2ia4NniF0sfsaQHMCebgceQ8QQr6XDZ4j9Q8QQf6Nk+PMQqzmIIa4eixSSCIgxUnPx5x9QACDah+EDAib5Q58O1Ti2yLnvHWipUbDGYIUkmMEvNPh0EkJ3aA53pKBSYDSD/XgI4SC+PJ2UBbNqhhb/jJNcjDPdBgxdjqeLgsrFRvEexeBQO29CLK0Zd59PUdvRcmD42N8/hSVl5tL+pqcfFc3ZcmhY7a4lOLvb2yQviuvX4K21hISEhISEhISEhISEhISEhISE/zn+Ax5ylM+yo6nPAAAAAElFTkSuQmCC;" vertex="1" parent="_5mSTuPxr-ZiKRkBDSY7-9">
          <mxGeometry x="20" y="121" width="109" height="109" as="geometry" />
        </mxCell>
        <object label="Task 7&lt;br&gt;&lt;span style=&quot;font-weight: normal&quot;&gt;&lt;i&gt;&lt;font style=&quot;font-size: 10px&quot;&gt;%status%&lt;/font&gt;&lt;/i&gt;&lt;/span&gt;" placeholders="1" id="_5mSTuPxr-ZiKRkBDSY7-11">
          <mxCell style="whiteSpace=wrap;html=1;strokeWidth=2;fillColor=swimlane;fontStyle=1;spacingTop=0;rounded=1;arcSize=9;points=[];sketch=1;fontFamily=Permanent Marker;hachureGap=8;fillWeight=1;" parent="1" vertex="1">
            <mxGeometry x="450" y="690" width="130" height="80" as="geometry" />
          </mxCell>
        </object>
        <object label="Task 5&lt;br&gt;&lt;span style=&quot;font-weight: normal&quot;&gt;&lt;i&gt;&lt;font style=&quot;font-size: 10px&quot;&gt;%status%&lt;/font&gt;&lt;/i&gt;&lt;/span&gt;" placeholders="1" id="_5mSTuPxr-ZiKRkBDSY7-8">
          <mxCell style="whiteSpace=wrap;html=1;strokeWidth=2;fillColor=swimlane;fontStyle=1;spacingTop=0;rounded=1;arcSize=9;points=[];sketch=1;fontFamily=Permanent Marker;hachureGap=8;fillWeight=1;" parent="1" vertex="1">
            <mxGeometry x="300" y="690" width="140" height="80" as="geometry" />
          </mxCell>
        </object>
      </root>
    </mxGraphModel>
  </diagram>
</mxfile>
